<?xml version="1.0" encoding="UTF-8"?>
<svg version="1.1" xmlns="http://www.w3.org/2000/svg" width="449" height="515">
<path d="M0 0 C5.05368391 1.90326875 9.63187283 4.9183243 14.28564453 7.6262207 C15.39552734 8.25592773 16.50541016 8.88563477 17.64892578 9.53442383 C18.70724609 10.14866211 19.76556641 10.76290039 20.85595703 11.39575195 C22.31026123 12.23456909 22.31026123 12.23456909 23.79394531 13.09033203 C26.22546627 14.86092275 27.12034009 16.03362296 28.16064453 18.8137207 C23.9993836 24.09964675 19.45096555 28.1401019 14.19580078 32.32543945 C8.98346659 36.59861433 4.08557405 41.21540083 -0.83935547 45.8137207 C3.24955266 48.60305338 7.34212741 51.356061 11.61767578 53.8527832 C12.20395752 54.19889648 12.79023926 54.54500977 13.39428711 54.90161133 C15.10281279 55.90476504 16.81911193 56.89464288 18.53564453 57.8840332 C21.16064453 59.8137207 21.16064453 59.8137207 22.22314453 61.8684082 C22.16064453 63.8137207 22.16064453 63.8137207 20.98068237 65.29275513 C18.76529386 67.14410656 16.66278398 68.03017116 13.97753906 69.09448242 C12.3891069 69.73061966 12.3891069 69.73061966 10.76858521 70.37960815 C9.62179291 70.82966217 8.47500061 71.27971619 7.29345703 71.7434082 C6.10775116 72.21561798 4.92204529 72.68782776 3.70040894 73.17434692 C0.5418201 74.43204742 -2.62043698 75.68025962 -5.7835083 76.92663574 C-8.95553806 78.17860235 -12.12378022 79.44007595 -15.29248047 80.70043945 C-22.13580976 83.41927461 -28.98294493 86.12802758 -35.83935547 88.8137207 C-37.04126526 89.28731018 -38.24317505 89.76089966 -39.48150635 90.24884033 C-40.65549988 90.70740417 -41.82949341 91.16596802 -43.0390625 91.63842773 C-44.63550095 92.26420212 -44.63550095 92.26420212 -46.26419067 92.90261841 C-48.83935547 93.8137207 -48.83935547 93.8137207 -50.83935547 93.8137207 C-50.83935547 94.4737207 -50.83935547 95.1337207 -50.83935547 95.8137207 C-50.13810547 95.9993457 -49.43685547 96.1849707 -48.71435547 96.3762207 C-44.82721591 98.31979048 -42.11592346 101.10549656 -39.83935547 104.8137207 C-39.83935547 106.1337207 -39.83935547 107.4537207 -39.83935547 108.8137207 C-39.17935547 108.8137207 -38.51935547 108.8137207 -37.83935547 108.8137207 C-37.92185547 107.7205957 -38.00435547 106.6274707 -38.08935547 105.5012207 C-37.83935547 101.8137207 -37.83935547 101.8137207 -36.21435547 99.8137207 C-32.95578795 98.44169228 -31.24521113 98.90936439 -27.83935547 99.8137207 C-12.23085683 110.7375109 -1.87217045 129.00551332 6.10986328 145.88793945 C9.72195297 153.51101677 13.58665307 160.00509414 18.9465332 166.53173828 C56.33849225 212.33349707 57.79844693 281.93159019 52.14526367 338.27099609 C48.23801004 371.81173451 38.8609217 399.5945138 17.16064453 425.8137207 C16.72107422 426.37704102 16.28150391 426.94036133 15.82861328 427.52075195 C13.00668309 431.09771364 9.8130953 433.98899312 6.35595703 436.9230957 C4.90567148 438.17209607 3.48255096 439.45343162 2.09033203 440.7668457 C-10.71062405 452.809557 -25.43577278 462.44567406 -40.390625 471.57592773 C-45.9268898 474.9571741 -51.28894975 478.48356936 -56.58081055 482.23535156 C-92.68583757 507.46711026 -136.97921005 513.44569182 -179.83935547 513.8137207 C-181.04664307 513.82765869 -182.25393066 513.84159668 -183.49780273 513.85595703 C-223.65820574 514.12949538 -255.96638758 503.9828492 -288.30810547 480.36450195 C-290.61029083 478.6855075 -292.93741806 477.0623707 -295.30810547 475.48168945 C-308.5084271 466.58792164 -320.72757799 454.92579074 -329.83935547 441.8137207 C-329.83935547 441.1537207 -329.83935547 440.4937207 -329.83935547 439.8137207 C-330.49935547 439.8137207 -331.15935547 439.8137207 -331.83935547 439.8137207 C-333.21435547 438.45043945 -333.21435547 438.45043945 -334.83935547 436.5012207 C-337.68711843 433.13461066 -340.63053931 429.90035599 -343.65185547 426.6887207 C-349.31649537 420.46535305 -354.15210406 413.79347846 -358.83935547 406.8137207 C-359.54060547 405.77473633 -360.24185547 404.73575195 -360.96435547 403.6652832 C-369.24205329 390.82838463 -374.72101973 376.87234407 -379.33544922 362.37231445 C-380.59489834 358.45580678 -382.04583209 354.63874267 -383.54589844 350.80908203 C-400.99812244 305.76824129 -387.37124516 257.62576147 -370.71435547 214.2512207 C-368.85260021 209.28916961 -367.68951906 204.2099812 -366.46435547 199.0637207 C-360.40177632 173.91195745 -348.19064544 155.60131917 -329.83935547 137.8137207 C-328.1703529 136.14939321 -326.5030801 134.48332422 -324.83935547 132.8137207 C-325.82935547 132.4837207 -326.81935547 132.1537207 -327.83935547 131.8137207 C-318.24617357 121.03506956 -308.70190427 111.75472877 -296.42626953 104.04003906 C-291.59721102 100.99730952 -287.00658706 97.76670288 -282.46435547 94.3137207 C-245.1140304 66.29472601 -205.67700049 58.12950839 -159.89550781 64.2043457 C-146.60276694 66.12522346 -133.52447188 68.85684519 -120.48291016 72.05883789 C-119.3978418 72.31568359 -118.31277344 72.5725293 -117.19482422 72.8371582 C-116.23213623 73.07354004 -115.26944824 73.30992188 -114.27758789 73.5534668 C-111.58186718 74.10419554 -111.58186718 74.10419554 -108.83935547 71.8137207 C-94.61505969 71.8137207 -80.90826321 80.01099146 -68.83935547 86.8137207 C-67.02696093 87.81391184 -65.21447938 88.81394533 -63.40185547 89.8137207 C-62.21356965 90.47898569 -61.02569799 91.14499646 -59.83935547 91.8137207 C-59.57687012 91.22147705 -59.31438477 90.6292334 -59.04394531 90.01904297 C-57.7777853 87.70100013 -56.50134575 86.31139223 -54.56591797 84.52856445 C-53.91107422 83.92036865 -53.25623047 83.31217285 -52.58154297 82.68554688 C-51.88287109 82.04721924 -51.18419922 81.4088916 -50.46435547 80.7512207 C-49.39701172 79.76182495 -49.39701172 79.76182495 -48.30810547 78.75244141 C-44.93177902 75.62835619 -41.53253191 72.53081188 -38.11279297 69.4543457 C-37.55640137 68.95169189 -37.00000977 68.44903809 -36.42675781 67.93115234 C-34.92388485 66.57736475 -33.41309552 65.2323804 -31.90185547 63.88793945 C-29.60432186 62.06487062 -29.60432186 62.06487062 -29.83935547 59.8137207 C-31.42194169 58.61671691 -31.42194169 58.61671691 -33.48779297 57.5012207 C-34.24576172 57.06551758 -35.00373047 56.62981445 -35.78466797 56.1809082 C-36.58646484 55.72973633 -37.38826172 55.27856445 -38.21435547 54.8137207 C-39.78622104 53.92061526 -41.35660374 53.02489351 -42.92529297 52.1262207 C-43.62702637 51.73047852 -44.32875977 51.33473633 -45.05175781 50.92700195 C-46.83935547 49.8137207 -46.83935547 49.8137207 -48.83935547 47.8137207 C-48.61170924 43.39297786 -46.91212317 41.4180317 -43.77685547 38.4387207 C-42.96345703 37.66012695 -42.15005859 36.8815332 -41.31201172 36.0793457 C-38.50473803 33.5071202 -35.65648071 30.99329566 -32.76123047 28.52075195 C-30.12700038 26.18099881 -27.7036863 23.65853588 -25.28466797 21.09887695 C-23.83935547 19.8137207 -23.83935547 19.8137207 -21.83935547 19.8137207 C-21.83935547 19.1537207 -21.83935547 18.4937207 -21.83935547 17.8137207 C-20.40576172 16.40356445 -20.40576172 16.40356445 -18.40185547 14.7512207 C-14.30976531 11.28532228 -10.55694299 7.57463814 -6.81982422 3.73168945 C-2.68567862 -0.27199002 -2.68567862 -0.27199002 0 0 Z " fill="#B1F1BA" transform="translate(393.83935546875,0.186279296875)"/>
<path d="M0 0 C5.05368391 1.90326875 9.63187283 4.9183243 14.28564453 7.6262207 C15.39552734 8.25592773 16.50541016 8.88563477 17.64892578 9.53442383 C18.70724609 10.14866211 19.76556641 10.76290039 20.85595703 11.39575195 C22.31026123 12.23456909 22.31026123 12.23456909 23.79394531 13.09033203 C26.22546627 14.86092275 27.12034009 16.03362296 28.16064453 18.8137207 C23.9993836 24.09964675 19.45096555 28.1401019 14.19580078 32.32543945 C8.98346659 36.59861433 4.08557405 41.21540083 -0.83935547 45.8137207 C3.24955266 48.60305338 7.34212741 51.356061 11.61767578 53.8527832 C12.20395752 54.19889648 12.79023926 54.54500977 13.39428711 54.90161133 C15.10281279 55.90476504 16.81911193 56.89464288 18.53564453 57.8840332 C21.16064453 59.8137207 21.16064453 59.8137207 22.22314453 61.8684082 C22.16064453 63.8137207 22.16064453 63.8137207 20.98068237 65.29275513 C18.76529386 67.14410656 16.66278398 68.03017116 13.97753906 69.09448242 C12.3891069 69.73061966 12.3891069 69.73061966 10.76858521 70.37960815 C9.62179291 70.82966217 8.47500061 71.27971619 7.29345703 71.7434082 C6.10775116 72.21561798 4.92204529 72.68782776 3.70040894 73.17434692 C0.5418201 74.43204742 -2.62043698 75.68025962 -5.7835083 76.92663574 C-8.95553806 78.17860235 -12.12378022 79.44007595 -15.29248047 80.70043945 C-22.13580976 83.41927461 -28.98294493 86.12802758 -35.83935547 88.8137207 C-37.04126526 89.28731018 -38.24317505 89.76089966 -39.48150635 90.24884033 C-40.65549988 90.70740417 -41.82949341 91.16596802 -43.0390625 91.63842773 C-44.63550095 92.26420212 -44.63550095 92.26420212 -46.26419067 92.90261841 C-48.83935547 93.8137207 -48.83935547 93.8137207 -50.83935547 93.8137207 C-50.83935547 94.4737207 -50.83935547 95.1337207 -50.83935547 95.8137207 C-50.13810547 95.9993457 -49.43685547 96.1849707 -48.71435547 96.3762207 C-44.82721591 98.31979048 -42.11592346 101.10549656 -39.83935547 104.8137207 C-39.83935547 106.1337207 -39.83935547 107.4537207 -39.83935547 108.8137207 C-39.17935547 108.8137207 -38.51935547 108.8137207 -37.83935547 108.8137207 C-37.92185547 107.7205957 -38.00435547 106.6274707 -38.08935547 105.5012207 C-37.83935547 101.8137207 -37.83935547 101.8137207 -36.21435547 99.8137207 C-32.95578795 98.44169228 -31.24521113 98.90936439 -27.83935547 99.8137207 C-12.23085683 110.7375109 -1.87217045 129.00551332 6.10986328 145.88793945 C9.72195297 153.51101677 13.58665307 160.00509414 18.9465332 166.53173828 C56.33849225 212.33349707 57.79844693 281.93159019 52.14526367 338.27099609 C48.23801004 371.81173451 38.8609217 399.5945138 17.16064453 425.8137207 C16.72107422 426.37704102 16.28150391 426.94036133 15.82861328 427.52075195 C13.00668309 431.09771364 9.8130953 433.98899312 6.35595703 436.9230957 C4.90567148 438.17209607 3.48255096 439.45343162 2.09033203 440.7668457 C-10.71062405 452.809557 -25.43577278 462.44567406 -40.390625 471.57592773 C-45.9268898 474.9571741 -51.28894975 478.48356936 -56.58081055 482.23535156 C-92.68583757 507.46711026 -136.97921005 513.44569182 -179.83935547 513.8137207 C-181.04664307 513.82765869 -182.25393066 513.84159668 -183.49780273 513.85595703 C-223.65820574 514.12949538 -255.96638758 503.9828492 -288.30810547 480.36450195 C-290.61029083 478.6855075 -292.93741806 477.0623707 -295.30810547 475.48168945 C-308.5084271 466.58792164 -320.72757799 454.92579074 -329.83935547 441.8137207 C-329.83935547 441.1537207 -329.83935547 440.4937207 -329.83935547 439.8137207 C-330.49935547 439.8137207 -331.15935547 439.8137207 -331.83935547 439.8137207 C-333.21435547 438.45043945 -333.21435547 438.45043945 -334.83935547 436.5012207 C-337.68711843 433.13461066 -340.63053931 429.90035599 -343.65185547 426.6887207 C-349.31649537 420.46535305 -354.15210406 413.79347846 -358.83935547 406.8137207 C-359.54060547 405.77473633 -360.24185547 404.73575195 -360.96435547 403.6652832 C-369.24205329 390.82838463 -374.72101973 376.87234407 -379.33544922 362.37231445 C-380.59489834 358.45580678 -382.04583209 354.63874267 -383.54589844 350.80908203 C-400.99812244 305.76824129 -387.37124516 257.62576147 -370.71435547 214.2512207 C-368.85260021 209.28916961 -367.68951906 204.2099812 -366.46435547 199.0637207 C-360.40177632 173.91195745 -348.19064544 155.60131917 -329.83935547 137.8137207 C-328.1703529 136.14939321 -326.5030801 134.48332422 -324.83935547 132.8137207 C-325.82935547 132.4837207 -326.81935547 132.1537207 -327.83935547 131.8137207 C-318.24617357 121.03506956 -308.70190427 111.75472877 -296.42626953 104.04003906 C-291.59721102 100.99730952 -287.00658706 97.76670288 -282.46435547 94.3137207 C-245.1140304 66.29472601 -205.67700049 58.12950839 -159.89550781 64.2043457 C-146.60276694 66.12522346 -133.52447188 68.85684519 -120.48291016 72.05883789 C-119.3978418 72.31568359 -118.31277344 72.5725293 -117.19482422 72.8371582 C-116.23213623 73.07354004 -115.26944824 73.30992188 -114.27758789 73.5534668 C-111.58186718 74.10419554 -111.58186718 74.10419554 -108.83935547 71.8137207 C-94.61505969 71.8137207 -80.90826321 80.01099146 -68.83935547 86.8137207 C-67.02696093 87.81391184 -65.21447938 88.81394533 -63.40185547 89.8137207 C-62.21356965 90.47898569 -61.02569799 91.14499646 -59.83935547 91.8137207 C-59.57687012 91.22147705 -59.31438477 90.6292334 -59.04394531 90.01904297 C-57.7777853 87.70100013 -56.50134575 86.31139223 -54.56591797 84.52856445 C-53.91107422 83.92036865 -53.25623047 83.31217285 -52.58154297 82.68554688 C-51.88287109 82.04721924 -51.18419922 81.4088916 -50.46435547 80.7512207 C-49.39701172 79.76182495 -49.39701172 79.76182495 -48.30810547 78.75244141 C-44.93177902 75.62835619 -41.53253191 72.53081188 -38.11279297 69.4543457 C-37.55640137 68.95169189 -37.00000977 68.44903809 -36.42675781 67.93115234 C-34.92388485 66.57736475 -33.41309552 65.2323804 -31.90185547 63.88793945 C-29.60432186 62.06487062 -29.60432186 62.06487062 -29.83935547 59.8137207 C-31.42194169 58.61671691 -31.42194169 58.61671691 -33.48779297 57.5012207 C-34.24576172 57.06551758 -35.00373047 56.62981445 -35.78466797 56.1809082 C-36.58646484 55.72973633 -37.38826172 55.27856445 -38.21435547 54.8137207 C-39.78622104 53.92061526 -41.35660374 53.02489351 -42.92529297 52.1262207 C-43.62702637 51.73047852 -44.32875977 51.33473633 -45.05175781 50.92700195 C-46.83935547 49.8137207 -46.83935547 49.8137207 -48.83935547 47.8137207 C-48.61170924 43.39297786 -46.91212317 41.4180317 -43.77685547 38.4387207 C-42.96345703 37.66012695 -42.15005859 36.8815332 -41.31201172 36.0793457 C-38.50473803 33.5071202 -35.65648071 30.99329566 -32.76123047 28.52075195 C-30.12700038 26.18099881 -27.7036863 23.65853588 -25.28466797 21.09887695 C-23.83935547 19.8137207 -23.83935547 19.8137207 -21.83935547 19.8137207 C-21.83935547 19.1537207 -21.83935547 18.4937207 -21.83935547 17.8137207 C-20.40576172 16.40356445 -20.40576172 16.40356445 -18.40185547 14.7512207 C-14.30976531 11.28532228 -10.55694299 7.57463814 -6.81982422 3.73168945 C-2.68567862 -0.27199002 -2.68567862 -0.27199002 0 0 Z M-223.96435547 79.9387207 C-225.02541504 80.25413818 -225.02541504 80.25413818 -226.10791016 80.57592773 C-249.88397559 87.96352822 -273.46628187 101.088316 -291.35888672 118.4387207 C-293.83935547 120.8137207 -293.83935547 120.8137207 -296.39404297 122.8059082 C-299.03766738 124.97655189 -301.02084804 127.26619585 -303.15185547 129.9387207 C-303.93818359 130.92356445 -304.72451172 131.9084082 -305.53466797 132.9230957 C-306.67548828 134.35395508 -306.67548828 134.35395508 -307.83935547 135.8137207 C-308.45552734 136.54075195 -309.07169922 137.2677832 -309.70654297 138.0168457 C-320.44533354 150.82965162 -329.42251641 165.46791742 -337.75634766 179.94165039 C-338.49909518 181.2255521 -339.25020218 182.50464337 -340.00830078 183.77954102 C-358.08241315 214.18418218 -372.97015213 250.18362703 -373.83935547 285.8137207 C-373.86126953 286.66434082 -373.88318359 287.51496094 -373.90576172 288.39135742 C-374.24329187 303.94305909 -373.47957208 319.34776257 -371.83935547 334.8137207 C-371.75298828 335.72331543 -371.66662109 336.63291016 -371.57763672 337.57006836 C-369.82440714 354.52748269 -362.21605627 368.19568933 -353.83935547 382.8137207 C-353.31744629 383.73604492 -352.79553711 384.65836914 -352.2578125 385.60864258 C-341.21877437 405.00815554 -328.92404374 425.35627345 -312.83935547 441.0012207 C-312.32300537 441.51040039 -311.80665527 442.01958008 -311.2746582 442.54418945 C-307.96034636 445.78866642 -304.56419707 448.90125091 -301.03076172 451.90356445 C-298.65591385 453.97361901 -296.35906746 456.11407957 -294.06054688 458.26806641 C-291.3423102 460.80778626 -288.59655833 463.3164219 -285.83935547 465.8137207 C-284.82421875 466.73411133 -284.82421875 466.73411133 -283.78857422 467.6730957 C-265.7597001 482.5439187 -237.98155577 485.80892718 -215.86816406 489.19165039 C-211.74620977 489.82374789 -207.63040214 490.49117586 -203.51513672 491.1652832 C-202.13338657 491.39114027 -200.75163205 491.61697058 -199.36987305 491.84277344 C-198.69711334 491.95273651 -198.02435364 492.06269958 -197.33120728 492.17599487 C-191.83662852 493.0731394 -186.33947154 493.95122679 -180.83935547 494.8137207 C-179.69112305 495.00353516 -178.54289063 495.19334961 -177.35986328 495.38891602 C-157.96007076 498.43768858 -136.68241487 498.89330444 -117.83935547 492.8137207 C-116.9644043 492.53995605 -116.08945312 492.26619141 -115.18798828 491.98413086 C-85.3896752 482.53451112 -58.99121638 468.28929605 -33.83935547 449.8137207 C-32.90422119 449.12947021 -32.90422119 449.12947021 -31.95019531 448.43139648 C-7.08169142 430.11279591 15.75373048 408.99911192 26.91064453 379.5637207 C27.18030029 378.8629541 27.44995605 378.1621875 27.7277832 377.44018555 C33.19646718 362.22224523 35.09802605 346.33102358 36.41064453 330.3137207 C36.49303375 329.32859497 36.57542297 328.34346924 36.66030884 327.32849121 C40.56974305 281.90958595 40.56974305 281.90958595 31.16064453 237.8137207 C30.80180176 236.82871582 30.44295898 235.84371094 30.07324219 234.82885742 C24.76056367 220.40273038 18.44131402 206.34262805 12.19799805 192.29833984 C9.65740609 186.57722447 7.13139838 180.86850798 4.91064453 175.01293945 C1.07509303 164.93100172 -3.31318598 157.84917861 -11.16259766 150.41577148 C-12.96107197 148.69742722 -14.70292179 146.93298582 -16.44091797 145.15356445 C-22.35234793 139.11736747 -28.32783974 133.20779411 -34.83935547 127.8137207 C-35.76490234 126.99774414 -36.69044922 126.18176758 -37.64404297 125.34106445 C-40.6946641 122.8078415 -43.86909375 121.13670462 -47.46435547 119.4387207 C-56.53299983 115.06765391 -65.3656525 110.26830392 -74.19921875 105.44506836 C-77.72890782 103.53422511 -81.27322308 101.65541356 -84.83935547 99.8137207 C-85.82054855 99.30642426 -85.82054855 99.30642426 -86.82156372 98.78887939 C-97.56065331 93.30752077 -108.21696247 89.59152135 -119.90185547 86.6887207 C-120.71817444 86.48160461 -121.53449341 86.27448853 -122.37554932 86.06109619 C-128.18383753 84.58889502 -134.00612606 83.18345594 -139.83935547 81.8137207 C-140.57204651 81.64018066 -141.30473755 81.46664062 -142.05963135 81.2878418 C-168.8287354 74.98507754 -197.16312963 71.94691078 -223.96435547 79.9387207 Z " fill="#309E45" transform="translate(393.83935546875,0.186279296875)"/>
<path d="M0 0 C5.87238046 2.81384897 10.75076408 8.10865731 15 13 C15 13.66 15 14.32 15 15 C15.99 15.33 16.98 15.66 18 16 C19.72770255 17.62897669 21.36087253 19.28541397 23 21 C24.37231184 22.37768292 25.74747475 23.75252989 27.125 25.125 C29.41666667 27.41666667 31.70833333 29.70833333 34 32 C34.3403125 31.21496094 34.680625 30.42992187 35.03125 29.62109375 C38.97614692 21.07031984 43.24382181 16.17078546 51 11 C53.92578125 10.69921875 53.92578125 10.69921875 57.3125 10.6875 C58.42238281 10.67074219 59.53226563 10.65398437 60.67578125 10.63671875 C68.38091961 11.4787609 72.71425561 16.26615551 77.875 21.5625 C78.57955322 22.27978271 79.28410645 22.99706543 80.01000977 23.73608398 C93.13752144 37.23098988 93.13752144 37.23098988 95.1875 43.8125 C94.930893 48.17481896 93.39849264 50.33802324 90.65234375 53.6015625 C88.01729331 55.83169975 85.75042305 55.65844296 82.40234375 55.5390625 C77.82654867 54.51229873 75.10229431 51.3428804 72 48 C71.36835938 47.34 70.73671875 46.68 70.0859375 46 C66.36642227 41.94810256 63.5385727 37.87405958 61 33 C60.01 33 59.02 33 58 33 C57.57589844 33.89460938 57.15179688 34.78921875 56.71484375 35.7109375 C52.7125826 44.01243517 48.59191275 52.40808725 42 59 C35.85956121 60.25720191 30.65577271 58.56247958 25.2890625 55.61328125 C20.9456592 52.55214548 18.44520525 48.48291 15.80859375 43.953125 C13.11026952 39.35795899 10.25031452 36.20133084 6.13671875 32.80859375 C2.53994282 29.76415636 -0.70986798 26.36888518 -4 23 C-7.82887897 24.27629299 -8.50016327 25.82223968 -10.75 29.125 C-13.66826968 33.25965997 -16.62436328 36.85021655 -20.2890625 40.32421875 C-22.13015284 42.12747847 -23.77436059 44.03207712 -25.4375 46 C-35.22298527 57.35736186 -35.22298527 57.35736186 -41.43359375 58.4140625 C-47.95903051 58.87228563 -51.69867607 58.13253844 -56.875 54 C-68.54537179 43.27405136 -68.54537179 43.27405136 -69 36 C-74.35982998 38.74982582 -77.81814738 41.62263842 -81.6875 46.1875 C-89.01722006 54.45015698 -98.00635996 63.161565 -109 66 C-114.34611191 66 -117.18006077 64.70758807 -121 61 C-122.23060421 58.53879159 -122.2057723 56.74223134 -122.31640625 53.9921875 C-122.35830078 53.00605469 -122.40019531 52.01992188 -122.44335938 51.00390625 C-122.48267578 49.97136719 -122.52199219 48.93882812 -122.5625 47.875 C-122.60568359 46.83472656 -122.64886719 45.79445313 -122.69335938 44.72265625 C-122.7996288 42.14857472 -122.90166583 39.57439492 -123 37 C-123.61875 37.639375 -124.2375 38.27875 -124.875 38.9375 C-127.40638195 41.39442954 -128.37971141 41.91909279 -131.875 42.375 C-135 42 -135 42 -137.375 39.875 C-139.34082737 36.39699773 -139.59043545 34.94734665 -139 31 C-137.2597901 28.44879656 -135.12087838 26.41923156 -132.875 24.3125 C-132.30523437 23.74466797 -131.73546875 23.17683594 -131.1484375 22.59179688 C-127.05430255 18.62327743 -123.01921912 15.0642387 -117.0625 14.9375 C-112.50364838 16.5191424 -108.20053585 19.59892831 -106 24 C-105.91550372 25.7404417 -105.89276976 27.48409722 -105.90234375 29.2265625 C-105.90556641 30.2578125 -105.90878906 31.2890625 -105.91210938 32.3515625 C-105.92467773 33.97191406 -105.92467773 33.97191406 -105.9375 35.625 C-105.94201172 36.71296875 -105.94652344 37.8009375 -105.95117188 38.921875 C-105.96298224 41.61463789 -105.97945222 44.30729188 -106 47 C-105.34 47 -104.68 47 -104 47 C-103.76796875 46.28585937 -103.5359375 45.57171875 -103.296875 44.8359375 C-101.75316014 41.46022368 -99.79752278 39.31919834 -97.25 36.625 C-94.4651073 33.66071237 -91.74607836 30.69756198 -89.171875 27.55078125 C-85.854383 23.65800162 -82.08185233 20.62005292 -78 17.5625 C-77.31421875 17.02173828 -76.6284375 16.48097656 -75.921875 15.92382812 C-72.76965647 13.54462502 -70.71659319 12.10619393 -66.7578125 11.51953125 C-61.23384702 12.48192184 -57.30591342 15.44015896 -53.75 19.6875 C-51.85310338 23.27805432 -50.44490117 26.89450599 -49.125 30.73046875 C-47.82508164 33.3528735 -46.44007326 34.43936981 -44 36 C-43.35933594 35.41992188 -42.71867187 34.83984375 -42.05859375 34.2421875 C-40.76115234 33.07042969 -40.76115234 33.07042969 -39.4375 31.875 C-38.52097656 31.04226563 -37.60445313 30.20953125 -36.66015625 29.3515625 C-34.61136463 27.54044275 -32.55064491 25.89561541 -30.375 24.25 C-26.13931114 20.70360956 -23.68255911 15.85994334 -20.9921875 11.12109375 C-15.78904177 2.96949877 -9.75360255 -1.49520467 0 0 Z " fill="#319F45" transform="translate(254,362)"/>
<path d="M0 0 C5.05368391 1.90326875 9.63187283 4.9183243 14.28564453 7.6262207 C15.39552734 8.25592773 16.50541016 8.88563477 17.64892578 9.53442383 C18.70724609 10.14866211 19.76556641 10.76290039 20.85595703 11.39575195 C21.82549316 11.95496338 22.7950293 12.5141748 23.79394531 13.09033203 C26.22546627 14.86092275 27.12034009 16.03362296 28.16064453 18.8137207 C23.9993836 24.09964675 19.45096555 28.1401019 14.19580078 32.32543945 C8.98346659 36.59861433 4.08557405 41.21540083 -0.83935547 45.8137207 C3.24955266 48.60305338 7.34212741 51.356061 11.61767578 53.8527832 C12.20395752 54.19889648 12.79023926 54.54500977 13.39428711 54.90161133 C15.10281279 55.90476504 16.81911193 56.89464288 18.53564453 57.8840332 C21.16064453 59.8137207 21.16064453 59.8137207 22.22314453 61.8684082 C22.16064453 63.8137207 22.16064453 63.8137207 20.97869873 65.29374695 C18.77227763 67.13841262 16.68470393 68.02000162 14.00927734 69.07861328 C12.95677795 69.49947708 11.90427856 69.92034088 10.81988525 70.35395813 C9.67936707 70.80087509 8.53884888 71.24779205 7.36376953 71.70825195 C6.18280701 72.17809006 5.00184448 72.64792816 3.78509521 73.13200378 C0.63656826 74.38303865 -2.51446078 75.62731225 -5.66693115 76.86834717 C-8.81900854 78.1109844 -11.96776541 79.36197176 -15.11669922 80.61254883 C-18.75885789 82.05855141 -22.40180662 83.50228246 -26.04821777 84.93753052 C-30.95172207 86.86758835 -35.85007039 88.79970794 -40.70458984 90.8503418 C-41.73691742 91.28209969 -41.73691742 91.28209969 -42.7901001 91.72257996 C-44.48674659 92.43685219 -46.17758467 93.16488328 -47.86767578 93.89453125 C-51.36029357 94.97485543 -54.20361714 95.11542012 -57.83935547 94.8137207 C-58.49935547 94.1537207 -59.15935547 93.4937207 -59.83935547 92.8137207 C-59.53647279 89.26858566 -57.99798639 87.65551385 -55.44482422 85.30981445 C-54.38992798 84.32972412 -54.38992798 84.32972412 -53.3137207 83.32983398 C-52.18172241 82.30092041 -52.18172241 82.30092041 -51.02685547 81.2512207 C-50.26381104 80.54465332 -49.5007666 79.83808594 -48.71459961 79.11010742 C-45.18029568 75.84373908 -41.61795473 72.60913068 -38.04248047 69.38793945 C-37.48536377 68.88399658 -36.92824707 68.38005371 -36.35424805 67.86083984 C-34.86464069 66.51786463 -33.36594051 65.18499492 -31.86669922 63.8527832 C-29.60433344 62.05657273 -29.60433344 62.05657273 -29.83935547 59.8137207 C-31.42194169 58.61671691 -31.42194169 58.61671691 -33.48779297 57.5012207 C-34.24576172 57.06551758 -35.00373047 56.62981445 -35.78466797 56.1809082 C-36.58646484 55.72973633 -37.38826172 55.27856445 -38.21435547 54.8137207 C-39.78622104 53.92061526 -41.35660374 53.02489351 -42.92529297 52.1262207 C-43.62702637 51.73047852 -44.32875977 51.33473633 -45.05175781 50.92700195 C-46.83935547 49.8137207 -46.83935547 49.8137207 -48.83935547 47.8137207 C-48.61170924 43.39297786 -46.91212317 41.4180317 -43.77685547 38.4387207 C-42.96345703 37.66012695 -42.15005859 36.8815332 -41.31201172 36.0793457 C-38.50473803 33.5071202 -35.65648071 30.99329566 -32.76123047 28.52075195 C-30.12700038 26.18099881 -27.7036863 23.65853588 -25.28466797 21.09887695 C-23.83935547 19.8137207 -23.83935547 19.8137207 -21.83935547 19.8137207 C-21.83935547 19.1537207 -21.83935547 18.4937207 -21.83935547 17.8137207 C-20.40576172 16.40356445 -20.40576172 16.40356445 -18.40185547 14.7512207 C-14.30976531 11.28532228 -10.55694299 7.57463814 -6.81982422 3.73168945 C-2.68567862 -0.27199002 -2.68567862 -0.27199002 0 0 Z " fill="#000000" transform="translate(393.83935546875,0.186279296875)"/>
<path d="M0 0 C2.67740219 1.51694582 4.481169 3.23803908 6.58984375 5.4777832 C9.41506392 8.40590875 12.24605443 11.20966398 15.33984375 13.8527832 C18.82967314 16.84505276 22.04575911 20.03937959 25.26953125 23.3137207 C27.25202966 25.26536311 29.29670455 27.09786838 31.40234375 28.9152832 C32.69490785 30.03925199 33.986611 31.16421183 35.27734375 32.2902832 C35.88320312 32.8162207 36.4890625 33.3421582 37.11328125 33.8840332 C39.39337902 35.98215134 41.08609931 37.63396707 41.96484375 40.6496582 C41.11692795 43.90642569 40.3676791 44.16100828 37.55859375 45.8605957 C35.97500315 46.73090516 34.38061539 47.58178587 32.77734375 48.4152832 C31.17817712 49.26190083 29.58408825 50.11820375 27.99609375 50.9855957 C27.28388672 51.35700684 26.57167969 51.72841797 25.83789062 52.11108398 C25.32291016 52.50021973 24.80792969 52.88935547 24.27734375 53.2902832 C24.27734375 54.2802832 24.27734375 55.2702832 24.27734375 56.2902832 C24.8614502 56.55220459 25.44555664 56.81412598 26.04736328 57.08398438 C28.40000677 58.35663726 30.02998285 59.74301843 31.95703125 61.59106445 C32.63894531 62.23881836 33.32085937 62.88657227 34.0234375 63.55395508 C34.72597656 64.23006836 35.42851563 64.90618164 36.15234375 65.6027832 C37.54404619 66.93380845 38.93725081 68.26326499 40.33203125 69.59106445 C40.99799316 70.22584717 41.66395508 70.86062988 42.35009766 71.51464844 C44.09341188 73.12082076 45.87868315 74.6169071 47.73046875 76.0949707 C50.27734375 78.2902832 50.27734375 78.2902832 51.15234375 81.1027832 C51.19359375 81.8246582 51.23484375 82.5465332 51.27734375 83.2902832 C48.27734375 85.2902832 48.27734375 85.2902832 45.98478699 85.06085205 C42.89891231 84.18257735 39.95079181 83.12018049 36.95825195 81.96118164 C36.34625946 81.72522781 35.73426697 81.48927399 35.10372925 81.24617004 C33.0932095 80.4690048 31.08540649 79.68514706 29.078125 78.8996582 C28.39015524 78.63100197 27.70218548 78.36234573 26.99336815 78.0855484 C23.35802878 76.66499746 19.72496736 75.2387827 16.09350586 73.80834961 C12.34330276 72.33261108 8.58525251 70.87803864 4.82508564 69.42791367 C1.93184682 68.30752813 -0.95490019 67.17111879 -3.84012794 66.03028107 C-5.22321904 65.48672875 -6.60874773 64.94933694 -7.99667931 64.4182663 C-9.93553975 63.67475372 -11.86405868 62.90889294 -13.79174805 62.13696289 C-14.89141403 61.70695984 -15.99108002 61.27695679 -17.12406921 60.83392334 C-20.20410617 59.00428723 -20.80146624 57.68932535 -21.72265625 54.2902832 C-17.35106801 50.45663183 -12.86592973 47.40024673 -7.84765625 44.4777832 C-7.15929687 44.07108398 -6.4709375 43.66438477 -5.76171875 43.24536133 C-4.08485062 42.25554333 -2.40414934 41.27222383 -0.72265625 40.2902832 C-1.65271484 39.55938477 -1.65271484 39.55938477 -2.6015625 38.8137207 C-8.54486686 34.05561677 -14.28412069 29.10576748 -19.91015625 23.9777832 C-20.58183838 23.37949707 -21.25352051 22.78121094 -21.94555664 22.16479492 C-22.5668042 21.59132324 -23.18805176 21.01785156 -23.828125 20.42700195 C-24.66573364 19.66456177 -24.66573364 19.66456177 -25.52026367 18.88671875 C-26.72265625 17.2902832 -26.72265625 17.2902832 -26.72265625 13.2902832 C-23.17454708 10.33155417 -19.03686151 8.20919581 -15.03515625 5.9152832 C-13.93236328 5.24883789 -12.82957031 4.58239258 -11.69335938 3.89575195 C-10.62666016 3.27571289 -9.55996094 2.65567383 -8.4609375 2.0168457 C-7.48165283 1.44530762 -6.50236816 0.87376953 -5.4934082 0.28491211 C-2.72265625 -0.7097168 -2.72265625 -0.7097168 0 0 Z " fill="#000000" transform="translate(68.72265625,4.709716796875)"/>
<path d="M0 0 C3.46125842 2.71027606 4.67718537 4.18549699 5.24609375 8.57421875 C4.80859375 12.19921875 4.80859375 12.19921875 2.74609375 15.13671875 C-0.19140625 17.19921875 -0.19140625 17.19921875 -3.50390625 17.88671875 C-7.74463388 17.09607462 -9.32983047 15.76912218 -12.58984375 13.11328125 C-26.12384878 3.1558301 -44.16840525 -4.94556344 -61.19140625 -2.80078125 C-67.87160938 -1.60357387 -74.6995462 -0.22086918 -80.99609375 2.33984375 C-84.09727292 3.55382848 -86.04013545 3.15830117 -89.19140625 2.19921875 C-91.71365468 -0.07080484 -92.13846293 -1.43774132 -92.62890625 -4.80078125 C-92.07197186 -8.61975993 -91.18552952 -9.40453363 -88.19140625 -11.80078125 C-85.53718432 -12.81259587 -83.04422938 -13.63486823 -80.31640625 -14.36328125 C-79.56480225 -14.57235107 -78.81319824 -14.7814209 -78.03881836 -14.99682617 C-75.76132691 -15.61940302 -73.47886624 -16.21597927 -71.19140625 -16.80078125 C-70.53124512 -16.97029297 -69.87108398 -17.13980469 -69.19091797 -17.31445312 C-44.27459728 -23.55810614 -20.53900895 -14.3828003 0 0 Z " fill="#319F46" transform="translate(343.19140625,201.80078125)"/>
<path d="M0 0 C0.75990234 0.25265625 1.51980469 0.5053125 2.30273438 0.765625 C15.87056218 5.4002374 15.87056218 5.4002374 18.29272461 9.15917969 C19.50860113 12.46167463 18.90317486 14.88730057 18.0625 18.25 C16.5625 20.6875 16.5625 20.6875 14.0625 22.25 C5.37736393 23.49073372 -2.23876351 20.09936824 -9.9375 16.25 C-24.45542355 15.15430766 -44.47181602 21.41985537 -55.74609375 30.74609375 C-56.45958984 31.42865234 -56.45958984 31.42865234 -57.1875 32.125 C-59.97224612 34.27684928 -60.72523032 34.63524575 -64.0625 34.8125 C-67.9375 34.25 -67.9375 34.25 -70.4375 32.6875 C-72.62690557 29.12971594 -72.77388202 27.36221159 -71.9375 23.25 C-66.9353235 17.50176738 -60.18216049 13.70923548 -53.5625 10.125 C-52.60585449 9.60437988 -51.64920898 9.08375977 -50.66357422 8.54736328 C-42.66755731 4.34584155 -34.71312777 1.58973204 -25.90332031 -0.30957031 C-23.87026049 -0.76506459 -21.87579479 -1.31465175 -19.8671875 -1.8671875 C-12.59484054 -3.65493219 -6.89586714 -2.42082762 0 0 Z " fill="#319F45" transform="translate(158.9375,177.75)"/>
<path d="M0 0 C8.31482929 0.94539157 16.55368524 3.21599687 24.6875 5.125 C25.87794922 5.40214844 27.06839844 5.67929688 28.29492188 5.96484375 C31.19717398 6.64087034 34.09884214 7.31929571 37 8 C38.63420642 12.99912751 39.22629293 17.11962094 39.125 22.4375 C39.10695313 23.67371094 39.08890625 24.90992188 39.0703125 26.18359375 C39.04710937 27.11300781 39.02390625 28.04242188 39 29 C33.07090494 28.4138281 27.68419734 27.19595619 22 25.4375 C21.22527344 25.20353516 20.45054687 24.96957031 19.65234375 24.72851562 C17.7664786 24.15809962 15.8829791 23.57987197 14 23 C14.24447876 23.88993652 14.24447876 23.88993652 14.49389648 24.79785156 C15.18588769 27.80883113 15.09334822 30.66517839 15.0625 33.75 C15.05347656 34.92046875 15.04445312 36.0909375 15.03515625 37.296875 C15.02355469 38.18890625 15.01195312 39.0809375 15 40 C10.1146334 40 7.91434591 38.18316209 4.125 35.4375 C2.71198586 34.43341888 1.29785609 33.43090651 -0.1171875 32.4296875 C-0.88772461 31.88280273 -1.65826172 31.33591797 -2.45214844 30.77246094 C-5.25326005 28.82381488 -8.09343679 26.94382752 -10.9453125 25.0703125 C-11.94836426 24.40588135 -12.95141602 23.7414502 -13.98486328 23.05688477 C-15.97935166 21.73761549 -17.980276 20.42802001 -19.98779297 19.12866211 C-20.89932129 18.52030518 -21.81084961 17.91194824 -22.75 17.28515625 C-23.56984375 16.74769775 -24.3896875 16.21023926 -25.234375 15.65649414 C-25.81703125 15.10985107 -26.3996875 14.56320801 -27 14 C-27 12.68 -27 11.36 -27 10 C-21.05349367 10.64784186 -15.32612517 11.71983435 -9.5 13.0625 C-8.26636719 13.3419043 -8.26636719 13.3419043 -7.0078125 13.62695312 C-5.0044283 14.08120885 -3.0020997 14.54011599 -1 15 C-1.01160156 14.00097656 -1.02320313 13.00195312 -1.03515625 11.97265625 C-1.04417969 10.68230469 -1.05320313 9.39195312 -1.0625 8.0625 C-1.07410156 6.77472656 -1.08570313 5.48695313 -1.09765625 4.16015625 C-1 1 -1 1 0 0 Z " fill="#030403" transform="translate(135,215)"/>
<path d="M0 0 C1.92905745 0.30491553 3.84381628 0.69991208 5.75 1.125 C6.99910156 1.4034375 8.24820313 1.681875 9.53515625 1.96875 C16.5663282 3.5839974 23.58898447 5.23620756 30.60546875 6.9140625 C31.38043701 7.0992041 32.15540527 7.2843457 32.95385742 7.47509766 C34.65591635 7.91173132 36.33300024 8.44433341 38 9 C38.797837 15.69613196 39.12910853 22.25766581 39 29 C30.13344444 28.52500595 22.4022077 25.75366471 14 23 C14.495 31.415 14.495 31.415 15 40 C14.01 40.33 13.02 40.66 12 41 C9.56201557 39.56679803 7.34473737 38.09196181 5.0625 36.4375 C4.02959839 35.70768921 4.02959839 35.70768921 2.97583008 34.96313477 C1.46639253 33.89610414 -0.04005796 32.824839 -1.54394531 31.75 C-5.05488334 29.2483694 -8.59068124 26.78278358 -12.12524414 24.31469727 C-15.44654402 21.99458509 -18.76223553 19.66652485 -22.07739258 17.33764648 C-23.70474694 16.20542115 -25.35047914 15.09968057 -27 14 C-27 12.68 -27 11.36 -27 10 C-18.50692562 11.1643731 -10.27657818 12.76308698 -2 15 C-1.90912109 13.50146484 -1.90912109 13.50146484 -1.81640625 11.97265625 C-1.73261719 10.68230469 -1.64882813 9.39195312 -1.5625 8.0625 C-1.48128906 6.77472656 -1.40007812 5.48695313 -1.31640625 4.16015625 C-1 1 -1 1 0 0 Z " fill="#030403" transform="translate(293,219)"/>
<path d="M0 0 C0.66 0.33 1.32 0.66 2 1 C1.46632812 1.74121094 0.93265625 2.48242188 0.3828125 3.24609375 C-9.84439808 17.70220282 -17.96224756 32.6837149 -25.29467773 48.7902832 C-29.21535656 57.38807776 -33.3643819 65.76512556 -38 74 C-39.05985016 70.82044953 -38.97423248 69.98565815 -38.21484375 66.859375 C-38.01713379 66.043479 -37.81942383 65.22758301 -37.61572266 64.38696289 C-37.39190918 63.51676514 -37.1680957 62.64656738 -36.9375 61.75 C-36.70853027 60.85337646 -36.47956055 59.95675293 -36.24365234 59.03295898 C-29.86928236 34.91308226 -17.75353715 17.06034047 0 0 Z " fill="#AFF0B8" transform="translate(64,138)"/>
<path d="M0 0 C0.99 0.495 0.99 0.495 2 1 C-32.84219899 27.04789396 -76.93656324 38.52665579 -120 37 C-120 36.67 -120 36.34 -120 36 C-119.22100342 35.92483154 -118.44200684 35.84966309 -117.6394043 35.7722168 C-76.82160189 31.79534423 -38.64982228 23.07844611 -2.95703125 1.609375 C-1.98121094 1.07828125 -1.00539063 0.5471875 0 0 Z " fill="#AAECB3" transform="translate(343,476)"/>
<path d="M0 0 C0.66 0.33 1.32 0.66 2 1 C1.15179688 1.70382813 0.30359375 2.40765625 -0.5703125 3.1328125 C-7.83926685 9.23279519 -14.72966238 15.50464621 -21.20361328 22.45361328 C-24.56801657 25.96224821 -27.11411968 27.86682896 -32 29 C-23.46092586 16.42558281 -12.72730088 7.91806438 0 0 Z " fill="#AEEFB7" transform="translate(98,104)"/>
<path d="M0 0 C0 0.66 0 1.32 0 2 C-12.99172405 4.33184791 -25.83791236 4.21258186 -39 4 C-39 3.67 -39 3.34 -39 3 C-38.1529248 2.91435791 -37.30584961 2.82871582 -36.43310547 2.74047852 C-33.26839602 2.41958746 -30.10386915 2.0969642 -26.93945312 1.77319336 C-25.57396316 1.63383458 -24.20840403 1.4951517 -22.84277344 1.35717773 C-20.87156087 1.15789822 -18.90062102 0.95592694 -16.9296875 0.75390625 C-15.74616699 0.63345947 -14.56264648 0.5130127 -13.34326172 0.38891602 C-11.1256897 0.13094959 -8.91447839 -0.18984929 -6.71533203 -0.57446289 C-4.05594776 -0.99123207 -2.5139738 -0.8702217 0 0 Z " fill="#A3E8AD" transform="translate(262,509)"/>
<path d="M0 0 C-0.33 0.66 -0.66 1.32 -1 2 C-6.19432248 3.58470855 -11.57858775 4.28533749 -17 4 C-16.67 3.34 -16.34 2.68 -16 2 C-13.1640625 1.11328125 -13.1640625 1.11328125 -9.625 0.3125 C-8.46226562 0.04050781 -7.29953125 -0.23148437 -6.1015625 -0.51171875 C-3 -1 -3 -1 0 0 Z " fill="#AFEFB8" transform="translate(278,506)"/>
<path d="" fill="#B1F3BC" transform="translate(0,0)"/>
</svg>
